<?xml version="1.0" standalone="no"?>
<!DOCTYPE svg PUBLIC "-//W3C//DTD SVG 20010904//EN"
 "http://www.w3.org/TR/2001/REC-SVG-20010904/DTD/svg10.dtd">
<svg version="1.0" xmlns="http://www.w3.org/2000/svg"
 width="512.000000pt" height="512.000000pt" viewBox="0 0 512.000000 512.000000"
 preserveAspectRatio="xMidYMid meet">
<metadata>
Created by potrace 1.14, written by Peter Selinger 2001-2017
</metadata>
<g transform="translate(0.000000,512.000000) scale(0.100000,-0.100000)"
fill="#000000" stroke="none">
<path d="M2783 4496 c61 -105 123 -216 140 -246 17 -30 38 -66 47 -80 9 -14
19 -29 21 -35 2 -5 33 -61 69 -124 36 -62 76 -134 90 -158 14 -25 30 -45 35
-45 5 -1 99 154 207 343 109 189 205 355 213 369 8 14 20 36 27 50 7 14 15 27
18 30 9 9 40 68 40 77 0 6 -204 10 -508 10 l-508 0 109 -191z"/>
<path d="M3884 4678 c-2 -3 47 -94 109 -200 62 -107 116 -201 120 -209 7 -14
15 -28 48 -79 9 -14 27 -45 41 -70 32 -57 51 -90 125 -217 l59 -101 31 51 c17
29 43 75 58 102 15 28 31 55 35 60 4 6 17 26 27 45 11 19 64 112 118 205 54
94 112 195 128 225 17 30 34 57 39 58 4 2 8 8 8 12 0 5 14 32 30 60 17 28 30
54 30 58 0 9 -1000 9 -1006 0z"/>
<path d="M1707 4591 c25 -47 54 -98 65 -113 10 -14 18 -28 18 -31 0 -3 22 -43
48 -89 26 -46 52 -92 56 -103 7 -18 10 -16 32 20 14 22 30 49 35 60 5 11 23
43 39 70 17 28 35 59 40 70 6 11 20 36 31 55 12 19 33 58 47 85 14 28 30 53
35 56 5 3 -104 6 -242 6 l-251 0 47 -86z"/>
<path d="M2566 4608 c-9 -18 -28 -51 -42 -73 -13 -22 -30 -51 -37 -65 -6 -14
-14 -27 -17 -30 -5 -5 -10 -14 -49 -84 -46 -81 -109 -192 -259 -451 -44 -77
-78 -142 -76 -144 2 -2 229 -5 504 -5 l501 -1 -6 25 c-4 14 -11 27 -16 28 -5
2 -9 7 -9 11 0 6 -466 809 -475 819 -1 1 -10 -12 -19 -30z"/>
<path d="M3721 4534 c-33 -58 -61 -110 -61 -115 0 -5 -4 -9 -10 -9 -5 0 -10
-4 -10 -9 0 -5 -45 -86 -100 -181 -55 -94 -100 -176 -100 -181 0 -5 -4 -9 -9
-9 -5 0 -11 -8 -14 -17 -8 -25 -50 -97 -62 -105 -5 -4 -6 -8 -1 -8 5 0 2 -8
-6 -17 -20 -23 -69 -116 -63 -121 5 -6 995 -5 1001 1 3 2 -54 107 -127 233
-72 126 -156 273 -186 326 -30 54 -59 100 -64 104 -5 3 -9 14 -9 25 0 10 -4
19 -8 19 -4 0 -19 21 -33 47 -13 25 -32 61 -41 79 -10 18 -22 35 -27 38 -4 3
-36 -42 -70 -100z"/>
<path d="M973 3640 l-61 -5 141 -252 c78 -139 145 -253 148 -253 4 0 93 153
257 443 19 32 31 61 28 64 -7 7 -434 9 -513 3z"/>
<path d="M2085 3639 c-2 -3 10 -30 28 -60 18 -30 39 -67 47 -84 8 -16 17 -32
20 -35 5 -5 16 -24 57 -99 14 -25 29 -50 33 -56 4 -5 19 -30 32 -55 46 -83 70
-125 123 -215 29 -49 63 -110 77 -135 61 -110 75 -132 82 -134 4 0 18 17 31
39 12 22 46 81 75 130 29 50 64 110 78 135 14 25 92 161 175 303 82 142 146
261 143 264 -8 8 -997 10 -1001 2z"/>
<path d="M479 3637 c-1 -4 -2 -10 -3 -14 -1 -5 -9 -19 -17 -33 -27 -42 -169
-291 -169 -296 0 -2 90 -4 200 -4 110 0 200 2 200 4 0 3 -41 76 -91 163 -87
150 -117 196 -120 180z"/>
<path d="M1967 3568 c-8 -13 -34 -59 -59 -103 -70 -123 -76 -134 -223 -390
-76 -132 -153 -266 -171 -297 l-33 -58 42 -1 c235 -3 960 0 964 4 3 3 -15 39
-39 79 -24 40 -47 80 -51 88 -4 8 -15 29 -26 45 -18 29 -53 90 -75 130 -6 11
-19 31 -27 45 -27 42 -133 225 -134 230 0 5 -7 16 -51 85 -10 17 -19 32 -19
35 0 3 -13 24 -28 47 -15 24 -27 45 -27 49 0 3 -7 12 -15 20 -12 13 -16 12
-28 -8z"/>
<path d="M1480 2602 c0 -2 16 -31 35 -63 19 -33 35 -64 35 -70 0 -5 4 -9 8 -9
4 0 15 -15 23 -32 26 -56 54 -103 62 -106 4 -2 7 -8 7 -14 0 -6 15 -36 34 -67
19 -31 47 -79 63 -107 150 -269 230 -404 239 -404 6 0 17 12 25 28 7 15 52 92
98 172 46 80 95 165 109 189 14 25 38 67 53 93 16 27 29 53 29 58 0 6 4 10 9
10 5 0 13 10 17 23 3 12 12 29 19 37 7 8 26 39 41 68 31 56 34 62 77 134 15
26 27 50 27 55 0 4 -227 8 -505 8 -278 0 -505 -1 -505 -3z"/>
<path d="M2371 2196 c-116 -201 -211 -370 -211 -375 0 -5 -4 -11 -8 -13 -12
-5 -74 -119 -68 -125 7 -8 995 -7 1002 0 4 3 -4 23 -16 44 -29 49 -56 96 -88
153 -13 25 -31 53 -40 63 -8 9 -11 17 -7 17 4 0 1 8 -7 18 -15 17 -72 113 -73
122 0 3 -8 16 -17 30 -17 27 -76 129 -116 200 -14 25 -42 73 -63 107 -21 35
-40 71 -44 82 -19 62 -27 52 -244 -323z"/>
<path d="M445 2291 c-4 -4 24 -60 35 -71 3 -3 19 -32 35 -65 17 -33 32 -62 35
-65 3 -3 31 -50 62 -105 31 -55 66 -118 79 -140 12 -22 30 -54 40 -72 15 -30
18 -31 31 -15 8 9 25 38 39 65 13 26 27 47 31 47 5 0 8 5 8 11 0 6 32 64 70
130 39 66 70 122 70 124 0 3 16 29 35 60 20 30 32 55 28 55 -4 0 -3 4 4 8 6 4
13 14 15 22 3 12 -42 14 -305 15 -170 0 -310 -2 -312 -4z"/>
<path d="M1304 1933 c-31 -54 -62 -107 -69 -118 -7 -11 -13 -24 -14 -30 -1 -5
-8 -17 -16 -25 -7 -8 -20 -29 -28 -46 l-16 -30 204 -1 203 0 -30 51 c-16 28
-33 58 -38 66 -5 8 -30 51 -56 95 -26 44 -53 92 -61 108 -8 15 -16 27 -18 27
-3 0 -30 -44 -61 -97z"/>
<path d="M2080 1557 c0 -4 17 -38 39 -75 131 -230 306 -531 319 -552 9 -14 17
-27 17 -30 0 -3 29 -53 64 -112 57 -98 81 -122 81 -82 0 8 3 14 8 14 4 0 18
23 31 50 14 28 28 50 32 50 4 0 9 6 11 13 2 11 275 491 339 597 46 77 69 123
64 129 -10 9 -1005 7 -1005 -2z"/>
<path d="M3285 1552 c-2 -2 24 -49 57 -105 33 -56 70 -120 83 -142 29 -51 112
-193 148 -253 15 -26 33 -58 40 -72 6 -14 15 -29 20 -35 4 -5 40 -66 79 -133
39 -68 74 -120 79 -115 7 7 81 134 173 295 12 20 50 88 85 150 36 62 102 177
148 255 46 79 83 146 83 151 0 7 -987 11 -995 4z"/>
<path d="M3153 1468 c-18 -29 -39 -66 -48 -83 -9 -16 -28 -51 -43 -76 -15 -25
-73 -126 -130 -225 -57 -98 -108 -186 -113 -194 -68 -114 -139 -244 -134 -248
6 -6 985 -10 997 -4 7 3 -25 71 -52 112 -6 8 -57 98 -115 200 -58 102 -110
192 -115 200 -6 8 -17 29 -25 45 -8 17 -25 47 -37 67 -13 20 -51 86 -86 147
-34 61 -64 111 -65 111 -2 0 -17 -24 -34 -52z"/>
<path d="M4352 1454 c-18 -31 -32 -60 -32 -64 0 -5 -4 -10 -8 -12 -4 -1 -63
-100 -131 -218 -68 -118 -145 -253 -172 -299 -27 -46 -49 -88 -49 -92 0 -5 -3
-9 -8 -9 -4 0 -16 -20 -27 -45 -11 -25 -23 -45 -27 -45 -5 0 -8 -6 -8 -14 0
-11 86 -13 495 -13 272 0 495 2 495 3 0 5 -38 73 -186 331 -73 128 -146 256
-162 285 -17 29 -51 88 -76 131 -25 43 -46 81 -46 86 0 5 -6 13 -13 19 -10 9
-20 -1 -45 -44z"/>
<path d="M1649 943 c-90 -158 -165 -291 -167 -297 -2 -8 103 -11 343 -11 190
0 345 2 345 5 0 3 -23 42 -50 88 -28 46 -50 87 -50 93 0 5 -5 9 -11 9 -5 0 -8
4 -4 9 3 5 1 12 -4 15 -5 3 -37 54 -71 114 -33 59 -65 114 -70 122 -5 8 -25
43 -46 78 -20 34 -40 62 -44 62 -3 0 -80 -129 -171 -287z"/>
</g>
</svg>
